<mxfile host="app.diagrams.net" modified="2023-03-07T12:59:50.813Z" agent="5.0 (X11)" etag="08Mqh19tOOeADrf0cwOs" version="21.0.2" type="github">
  <diagram id="7ZY5kEdT9B8c4bE89Elh" name="Page-1">
    <mxGraphModel dx="1434" dy="782" grid="1" gridSize="10" guides="1" tooltips="1" connect="1" arrows="1" fold="1" page="1" pageScale="1" pageWidth="850" pageHeight="1100" math="0" shadow="0">
      <root>
        <mxCell id="0" />
        <mxCell id="1" parent="0" />
        <mxCell id="ps78NUCENiIbYgzCVEwa-1" value="" style="rounded=1;whiteSpace=wrap;html=1;arcSize=7;strokeColor=none;" vertex="1" parent="1">
          <mxGeometry x="210" y="230" width="380" height="240" as="geometry" />
        </mxCell>
        <mxCell id="Wxe-ITUFHvINjou7f0Xc-3" value="&lt;font style=&quot;font-size: 11px;&quot;&gt;RP2040&lt;/font&gt;" style="rounded=0;whiteSpace=wrap;html=1;" parent="1" vertex="1">
          <mxGeometry x="360" y="270" width="80" height="90" as="geometry" />
        </mxCell>
        <mxCell id="Wxe-ITUFHvINjou7f0Xc-5" value="&lt;font style=&quot;font-size: 11px;&quot;&gt;Program Flash&lt;br&gt;(W25Q128)&lt;/font&gt;" style="rounded=0;whiteSpace=wrap;html=1;" parent="1" vertex="1">
          <mxGeometry x="220" y="320" width="80" height="40" as="geometry" />
        </mxCell>
        <mxCell id="Wxe-ITUFHvINjou7f0Xc-7" value="" style="endArrow=classic;html=1;rounded=0;fontSize=11;startArrow=none;" parent="1" source="UiMDxGx6ajY-kjzpmQxl-1" target="Wxe-ITUFHvINjou7f0Xc-5" edge="1">
          <mxGeometry relative="1" as="geometry">
            <mxPoint x="360" y="340" as="sourcePoint" />
            <mxPoint x="430" y="340" as="targetPoint" />
          </mxGeometry>
        </mxCell>
        <mxCell id="Wxe-ITUFHvINjou7f0Xc-9" value="GPS&lt;br&gt;(L70B)" style="rounded=0;whiteSpace=wrap;html=1;" parent="1" vertex="1">
          <mxGeometry x="220" y="270" width="80" height="40" as="geometry" />
        </mxCell>
        <mxCell id="Wxe-ITUFHvINjou7f0Xc-10" value="" style="endArrow=classic;html=1;rounded=0;fontSize=11;exitX=0;exitY=0.5;exitDx=0;exitDy=0;startArrow=none;" parent="1" source="UiMDxGx6ajY-kjzpmQxl-3" edge="1">
          <mxGeometry relative="1" as="geometry">
            <mxPoint x="360" y="289.80000000000007" as="sourcePoint" />
            <mxPoint x="300" y="289.82400000000007" as="targetPoint" />
          </mxGeometry>
        </mxCell>
        <mxCell id="Wxe-ITUFHvINjou7f0Xc-13" value="&lt;font style=&quot;font-size: 11px;&quot;&gt;Data Flash&lt;br&gt;(W25Q128)&lt;/font&gt;" style="rounded=0;whiteSpace=wrap;html=1;" parent="1" vertex="1">
          <mxGeometry x="410" y="420" width="80" height="40" as="geometry" />
        </mxCell>
        <mxCell id="Wxe-ITUFHvINjou7f0Xc-19" value="" style="endArrow=classic;html=1;rounded=0;fontSize=11;strokeColor=default;entryX=0.5;entryY=0;entryDx=0;entryDy=0;exitX=0.5;exitY=1;exitDx=0;exitDy=0;startArrow=none;" parent="1" source="Wxe-ITUFHvINjou7f0Xc-20" target="Wxe-ITUFHvINjou7f0Xc-13" edge="1">
          <mxGeometry width="50" height="50" relative="1" as="geometry">
            <mxPoint x="450" y="340" as="sourcePoint" />
            <mxPoint x="490" y="320" as="targetPoint" />
            <Array as="points">
              <mxPoint x="400" y="400" />
              <mxPoint x="450" y="400" />
              <mxPoint x="450" y="410" />
            </Array>
          </mxGeometry>
        </mxCell>
        <mxCell id="Wxe-ITUFHvINjou7f0Xc-20" value="SPI" style="text;html=1;strokeColor=none;fillColor=none;align=center;verticalAlign=middle;whiteSpace=wrap;rounded=0;fontSize=11;" parent="1" vertex="1">
          <mxGeometry x="385" y="370" width="30" height="20" as="geometry" />
        </mxCell>
        <mxCell id="Wxe-ITUFHvINjou7f0Xc-22" value="" style="endArrow=none;html=1;rounded=0;fontSize=11;strokeColor=default;entryX=0.5;entryY=0;entryDx=0;entryDy=0;exitX=0.5;exitY=1;exitDx=0;exitDy=0;" parent="1" source="Wxe-ITUFHvINjou7f0Xc-3" target="Wxe-ITUFHvINjou7f0Xc-20" edge="1">
          <mxGeometry width="50" height="50" relative="1" as="geometry">
            <mxPoint x="440" y="340.02" as="sourcePoint" />
            <mxPoint x="520" y="360" as="targetPoint" />
            <Array as="points" />
          </mxGeometry>
        </mxCell>
        <mxCell id="Wxe-ITUFHvINjou7f0Xc-23" value="Radio&lt;br&gt;(SI4468)" style="rounded=0;whiteSpace=wrap;html=1;" parent="1" vertex="1">
          <mxGeometry x="310" y="420" width="80" height="40" as="geometry" />
        </mxCell>
        <mxCell id="Wxe-ITUFHvINjou7f0Xc-24" value="" style="endArrow=classic;html=1;rounded=0;fontSize=11;strokeColor=default;entryX=0.5;entryY=0;entryDx=0;entryDy=0;strokeWidth=1;" parent="1" target="Wxe-ITUFHvINjou7f0Xc-23" edge="1">
          <mxGeometry width="50" height="50" relative="1" as="geometry">
            <mxPoint x="400" y="400" as="sourcePoint" />
            <mxPoint x="490" y="320" as="targetPoint" />
            <Array as="points">
              <mxPoint x="350" y="400" />
            </Array>
          </mxGeometry>
        </mxCell>
        <mxCell id="Wxe-ITUFHvINjou7f0Xc-27" value="&lt;font style=&quot;font-size: 11px;&quot;&gt;Accelerometer&lt;br&gt;(ADXL)&lt;/font&gt;" style="rounded=0;whiteSpace=wrap;html=1;" parent="1" vertex="1">
          <mxGeometry x="500" y="245" width="80" height="40" as="geometry" />
        </mxCell>
        <mxCell id="Wxe-ITUFHvINjou7f0Xc-28" value="&lt;div style=&quot;font-size: 11px;&quot;&gt;&lt;font style=&quot;font-size: 11px;&quot;&gt;Gyroscope&lt;/font&gt;&lt;/div&gt;&lt;div style=&quot;font-size: 11px;&quot;&gt;&lt;font style=&quot;font-size: 11px;&quot;&gt;(I3G4250D)&lt;br&gt;&lt;/font&gt;&lt;/div&gt;" style="rounded=0;whiteSpace=wrap;html=1;" parent="1" vertex="1">
          <mxGeometry x="500" y="295" width="80" height="40" as="geometry" />
        </mxCell>
        <mxCell id="Wxe-ITUFHvINjou7f0Xc-29" value="&lt;font style=&quot;font-size: 11px;&quot;&gt;Barometer&lt;/font&gt;" style="rounded=0;whiteSpace=wrap;html=1;" parent="1" vertex="1">
          <mxGeometry x="500" y="345" width="80" height="40" as="geometry" />
        </mxCell>
        <mxCell id="Wxe-ITUFHvINjou7f0Xc-33" value="" style="endArrow=classic;html=1;rounded=0;fontSize=11;strokeColor=default;strokeWidth=1;entryX=0;entryY=0.5;entryDx=0;entryDy=0;" parent="1" target="Wxe-ITUFHvINjou7f0Xc-28" edge="1">
          <mxGeometry width="50" height="50" relative="1" as="geometry">
            <mxPoint x="440" y="315" as="sourcePoint" />
            <mxPoint x="460" y="345" as="targetPoint" />
          </mxGeometry>
        </mxCell>
        <mxCell id="Wxe-ITUFHvINjou7f0Xc-34" value="" style="endArrow=classic;html=1;rounded=0;fontSize=11;strokeColor=default;strokeWidth=1;entryX=0;entryY=0.5;entryDx=0;entryDy=0;" parent="1" target="Wxe-ITUFHvINjou7f0Xc-27" edge="1">
          <mxGeometry width="50" height="50" relative="1" as="geometry">
            <mxPoint x="470" y="315" as="sourcePoint" />
            <mxPoint x="460" y="345" as="targetPoint" />
            <Array as="points">
              <mxPoint x="470" y="265" />
            </Array>
          </mxGeometry>
        </mxCell>
        <mxCell id="Wxe-ITUFHvINjou7f0Xc-35" value="" style="endArrow=classic;html=1;rounded=0;fontSize=11;strokeColor=default;strokeWidth=1;entryX=0;entryY=0.5;entryDx=0;entryDy=0;" parent="1" target="Wxe-ITUFHvINjou7f0Xc-29" edge="1">
          <mxGeometry width="50" height="50" relative="1" as="geometry">
            <mxPoint x="470" y="315" as="sourcePoint" />
            <mxPoint x="460" y="345" as="targetPoint" />
            <Array as="points">
              <mxPoint x="470" y="365" />
            </Array>
          </mxGeometry>
        </mxCell>
        <mxCell id="Wxe-ITUFHvINjou7f0Xc-36" value="I2C" style="text;html=1;strokeColor=none;fillColor=none;align=center;verticalAlign=middle;whiteSpace=wrap;rounded=0;fontSize=11;" parent="1" vertex="1">
          <mxGeometry x="440" y="245" width="60" height="20" as="geometry" />
        </mxCell>
        <mxCell id="UiMDxGx6ajY-kjzpmQxl-1" value="QSPI" style="text;html=1;strokeColor=none;fillColor=none;align=center;verticalAlign=middle;whiteSpace=wrap;rounded=0;fontSize=11;" parent="1" vertex="1">
          <mxGeometry x="320" y="330" width="30" height="20" as="geometry" />
        </mxCell>
        <mxCell id="UiMDxGx6ajY-kjzpmQxl-2" value="" style="endArrow=none;html=1;rounded=0;fontSize=11;" parent="1" target="UiMDxGx6ajY-kjzpmQxl-1" edge="1">
          <mxGeometry relative="1" as="geometry">
            <mxPoint x="360" y="340.00000000000006" as="sourcePoint" />
            <mxPoint x="300" y="340.00000000000006" as="targetPoint" />
          </mxGeometry>
        </mxCell>
        <mxCell id="UiMDxGx6ajY-kjzpmQxl-3" value="UART" style="text;html=1;strokeColor=none;fillColor=none;align=center;verticalAlign=middle;whiteSpace=wrap;rounded=0;fontSize=11;" parent="1" vertex="1">
          <mxGeometry x="320" y="280" width="30" height="20" as="geometry" />
        </mxCell>
        <mxCell id="UiMDxGx6ajY-kjzpmQxl-4" value="" style="endArrow=none;html=1;rounded=0;fontSize=11;exitX=0;exitY=0.833;exitDx=0;exitDy=0;exitPerimeter=0;" parent="1" target="UiMDxGx6ajY-kjzpmQxl-3" edge="1">
          <mxGeometry relative="1" as="geometry">
            <mxPoint x="360" y="289.80000000000007" as="sourcePoint" />
            <mxPoint x="300" y="289.82400000000007" as="targetPoint" />
          </mxGeometry>
        </mxCell>
      </root>
    </mxGraphModel>
  </diagram>
</mxfile>
